# xmcd
#
# Track frame offsets: 
#        151
#        22402
#        47927
#        72838
#        97561
#        119451
#        148368
#        167810
#        196915
#        214752
#        234562
#        285415
#        319244
#
# Disc length: 4628 seconds
#
# Revision: 0
# Processed by: cddbd v1.5.2PL0 Copyright (c) Steve Scherf et al.
# Submitted via: ExactAudioCopy v0.99pb4
#
DISCID=c412120d
DTITLE=Various Artist - WATCH YOUR STEP VOL. 1
DYEAR=1900
DGENRE=R&B
TTITLE0=Welcome Back - DJ INC
TTITLE1=I'll Go - Donell Jones
TTITLE2=Swingin' - Blu Cantrell
TTITLE3=Sausalito Ferry - Leslie Drayton
TTITLE4=Laid Back - Gerald Daemyon
TTITLE5=Thinkin' About 'Cha - Lost Generation
TTITLE6=Soul Deep - Lisa Stansfield
TTITLE7=Keep Your Head Up - Ronny Jordan
TTITLE8=Hot Like Fire (Inst. Rmx) - Aaliyah
TTITLE9=Sundress - Phat Cat Players
TTITLE10=Steppers Call - MJ Blige, M. Jackson, Dr. Dre
TTITLE11=Keep Smilin' - Gabor Szabo
TTITLE12=Yada Yada****Bonus Track
EXTD=
EXTT0=
EXTT1=
EXTT2=
EXTT3=
EXTT4=
EXTT5=
EXTT6=
EXTT7=
EXTT8=
EXTT9=
EXTT10=
EXTT11=
EXTT12=
PLAYORDER=
